<svg width="485" height="467" viewBox="0 0 485 467" fill="none" xmlns="http://www.w3.org/2000/svg">
<g filter="url(#filter0_i_1056_583)">
<rect x="0.450195" y="0.78125" width="484.544" height="465.824" rx="40" fill="#FFFD9C"/>
</g>
<rect x="1.9502" y="2.28125" width="481.544" height="462.824" rx="38.5" stroke="#18444A" stroke-width="3"/>
<path fill-rule="evenodd" clip-rule="evenodd" d="M466.318 46.4125C464.078 47.3341 462.923 45.0261 461.411 44.0959C457.941 41.9528 453.538 39.1629 448.951 37.4614C444.473 35.7941 439.615 33.1968 435.141 32.4259C433.221 32.0946 430.563 32.9205 428.868 31.4641C428.977 31.0983 428.47 30.2187 429.009 30.2123C429.111 29.933 429.506 29.634 429.954 29.6378C440.496 29.7087 451.636 35.5121 459.603 40.2801C460.953 41.09 462.477 41.9965 463.792 42.9058C464.955 43.7074 467.334 44.4303 466.318 46.4125Z" fill="#17161A"/>
<path fill-rule="evenodd" clip-rule="evenodd" d="M43.3614 40.1143C43.5637 42.0877 41.4826 42.4573 40.4002 43.428C37.9096 45.6543 34.6939 48.4626 32.2902 51.6679C29.9386 54.7964 26.7684 58.0061 25.1215 61.3406C24.4146 62.7705 24.4444 65.0501 22.9063 66.0419C22.6443 65.8716 21.8355 66.0652 21.9559 65.6404C21.7605 65.495 21.6177 65.1151 21.7248 64.7646C24.2344 56.5029 31.3846 49.1056 36.9829 43.9599C37.9333 43.0879 38.9997 42.1025 40.0198 41.2818C40.9199 40.5552 42.0414 38.8551 43.3614 40.1143Z" fill="#17161A"/>
<path fill-rule="evenodd" clip-rule="evenodd" d="M455.664 43.5907C454.164 44.6457 451.75 43.1996 450.124 42.5696C448.384 41.8932 446.205 41.1213 445.876 39.209C446.135 38.8155 446.433 38.4612 446.778 38.1412C447.06 38.0749 447.221 38.1585 447.292 38.3428C448.8 38.9204 450.214 39.7867 451.93 40.4317C453.351 40.9693 455.783 41.178 455.664 43.5907Z" fill="#17161A"/>
<path fill-rule="evenodd" clip-rule="evenodd" d="M38.6657 47.8241C39.145 49.2474 37.4474 50.8068 36.5744 51.9366C35.6381 53.1459 34.5249 54.6768 32.9467 54.4899C30.1921 56.6828 32.4892 53.8785 32.3181 53.5335C32.3317 53.2965 32.4348 53.1897 32.596 53.1769C33.4007 52.1267 34.41 51.2184 35.316 50.0207C36.0689 49.03 36.7988 47.1692 38.6657 47.8241Z" fill="#17161A"/>
<defs>
<filter id="filter0_i_1056_583" x="0.450195" y="0.78125" width="490.343" height="471.624" filterUnits="userSpaceOnUse" color-interpolation-filters="sRGB">
<feFlood flood-opacity="0" result="BackgroundImageFix"/>
<feBlend mode="normal" in="SourceGraphic" in2="BackgroundImageFix" result="shape"/>
<feColorMatrix in="SourceAlpha" type="matrix" values="0 0 0 0 0 0 0 0 0 0 0 0 0 0 0 0 0 0 127 0" result="hardAlpha"/>
<feOffset dx="12" dy="11"/>
<feGaussianBlur stdDeviation="2.9"/>
<feComposite in2="hardAlpha" operator="arithmetic" k2="-1" k3="1"/>
<feColorMatrix type="matrix" values="0 0 0 0 0 0 0 0 0 0 0 0 0 0 0 0 0 0 0.11 0"/>
<feBlend mode="normal" in2="shape" result="effect1_innerShadow_1056_583"/>
</filter>
</defs>
</svg>
