<svg width="31" height="31" viewBox="0 0 31 31" fill="none" xmlns="http://www.w3.org/2000/svg">
<path d="M6.16489 19.0672H4.83364C4.1275 19.0672 3.45028 18.7868 2.95097 18.2874C2.45165 17.7881 2.17114 17.1109 2.17114 16.4047V4.42349C2.17114 3.71735 2.45165 3.04013 2.95097 2.54082C3.45028 2.0415 4.1275 1.76099 4.83364 1.76099H16.8149C17.521 1.76099 18.1982 2.0415 18.6976 2.54082C19.1969 3.04013 19.4774 3.71735 19.4774 4.42349V5.75474M14.1524 11.0797H26.1336C27.6041 11.0797 28.7961 12.2718 28.7961 13.7422V25.7235C28.7961 27.1939 27.6041 28.386 26.1336 28.386H14.1524C12.682 28.386 11.4899 27.1939 11.4899 25.7235V13.7422C11.4899 12.2718 12.682 11.0797 14.1524 11.0797Z" stroke="white" stroke-width="3.51958" stroke-linecap="round" stroke-linejoin="round"/>
</svg>
