<svg width="40" height="34" viewBox="0 0 40 34" fill="none" xmlns="http://www.w3.org/2000/svg">
<path fill-rule="evenodd" clip-rule="evenodd" d="M30.3949 33.316C30.9216 33.6889 31.6003 33.7821 32.2055 33.5531C32.8106 33.3225 33.2555 32.8057 33.3896 32.1793C34.8109 25.4998 38.2586 8.59332 39.5523 2.51734C39.6504 2.05939 39.4868 1.58345 39.127 1.27761C38.7672 0.971762 38.2684 0.883445 37.8235 1.04863C30.9657 3.58697 9.84616 11.5111 1.21389 14.7053C0.665989 14.9081 0.309442 15.4347 0.327433 16.0121C0.347059 16.5911 0.736316 17.0932 1.2973 17.2616C5.16855 18.4196 10.2501 20.0306 10.2501 20.0306C10.2501 20.0306 12.6249 27.2024 13.863 30.8496C14.0184 31.3075 14.3766 31.6673 14.8492 31.7916C15.3203 31.9143 15.824 31.7851 16.1757 31.4531C18.1645 29.5755 21.2393 26.6724 21.2393 26.6724C21.2393 26.6724 27.0814 30.9559 30.3949 33.316ZM12.3878 19.1245L15.1338 28.182L15.7439 22.4462C15.7439 22.4462 26.3535 12.8768 32.4017 7.42228C32.5784 7.262 32.6029 6.99377 32.4557 6.80569C32.3101 6.6176 32.0419 6.57344 31.8407 6.70102C24.8309 11.1775 12.3878 19.1245 12.3878 19.1245Z" fill="#060205"/>
</svg>
