<svg width="45" height="34" viewBox="0 0 45 34" fill="none" xmlns="http://www.w3.org/2000/svg">
<path d="M44.9502 4.83908C43.3236 5.49651 41.5755 5.93927 39.7408 6.13885C41.6142 5.11748 43.0528 3.49906 43.7289 1.57038C41.9771 2.51627 40.0355 3.20389 37.9687 3.57453C36.3163 1.96953 33.9566 0.966614 31.3483 0.966614C25.4923 0.966614 21.1892 5.94094 22.5118 11.1048C14.9758 10.761 8.29277 7.47383 3.81835 2.4777C1.44207 6.18916 2.586 11.0444 6.62384 13.5031C5.13912 13.4595 3.73914 13.0888 2.51784 12.47C2.41837 16.2955 5.43017 19.8744 9.79222 20.6711C8.51566 20.9864 7.11752 21.0602 5.69543 20.812C6.84857 24.0924 10.1975 26.4789 14.169 26.546C10.3559 29.268 5.55175 30.4839 0.740234 29.9673C4.75413 32.3103 9.52328 33.6771 14.6443 33.6771C31.4846 33.6771 40.9989 20.7281 40.4242 9.11405C42.1963 7.94846 43.7344 6.49439 44.9502 4.83908Z" fill="#060205"/>
</svg>
