<svg xmlns="http://www.w3.org/2000/svg" width="300" height="303" viewBox="0 0 300 303" fill="none">
<g clip-path="url(#clip0_128_2165)">
<path d="M116.754 126.642C116.134 128.794 115.808 129.935 115.493 131.055C111.286 133.109 106.993 134.424 102.428 134.642C94.7863 135.022 89.8514 131.229 88.0797 123.859C86.9166 119.044 87.8079 114.576 90.1123 110.304C92.8297 105.26 95.5689 100.228 98.1885 95.1297C99.2102 93.1297 100.058 91.0209 100.765 88.8796C101.406 86.923 101.732 84.8794 100.852 82.575C100.08 82.825 99.3624 82.8902 98.8624 83.249C97.2428 84.4012 96.4493 86.1186 95.7428 87.9339C94.7971 90.3579 93.808 92.771 92.6232 95.0863C91.9275 96.4559 90.9601 97.7603 89.8514 98.8146C87.6449 100.923 84.5253 100.749 82.3948 98.5972C80.8405 97.032 80.1013 95.1297 80.2861 92.9232C80.6774 88.2491 82.7861 84.6077 87.1014 82.5859C89.6014 81.4119 92.2754 80.5967 94.8732 79.6184C96.3298 79.0749 97.8733 78.6727 99.232 77.9553C100.069 77.5097 100.634 76.564 101.384 75.7922C100.069 73.7269 98.145 73.6182 96.2754 73.4769C95.7754 73.4443 95.2211 73.553 94.7428 73.7161C87.6666 76.1401 80.7752 78.9227 75.1447 84.0968C70.2425 88.6078 68.0359 94.2819 68.0251 100.836C68.0033 108.348 68.8838 115.761 71.2969 122.891C72.9164 127.674 75.3295 132.163 78.4491 136.109C84.547 143.816 92.895 145.881 102.254 144.609C105.156 144.207 107.982 143.251 110.852 142.566C111.471 142.414 112.113 142.349 112.895 142.218C113.091 144.349 112.928 145.914 110.819 146.588C103.732 148.838 96.5472 149.61 89.2753 147.707C82.2209 145.86 76.9491 141.544 73.0904 135.403C67.1011 125.859 64.4707 115.337 64.3946 104.206C64.3729 100.76 63.7533 97.782 62.0359 94.8363C60.3837 91.9883 58.9163 89.01 57.6445 85.9773C55.7097 81.3902 55.1771 76.5422 56.1771 71.6725C56.6228 69.5094 57.5249 67.368 58.6228 65.4441C59.938 63.1288 62.1228 62.1396 64.8511 62.9005C65.5033 63.0853 66.1555 63.2592 66.7642 63.4223C67.8185 62.5527 68.699 61.7048 69.699 61.0418C71.8403 59.5961 74.1665 59.1395 76.6013 60.2809C77.7752 60.8352 78.8513 60.8244 80.1013 60.4874C83.9927 59.4765 86.4383 60.607 88.0145 64.2158C88.6232 65.618 88.8079 67.2159 89.1775 68.7268C89.3406 69.3681 89.4927 69.9986 89.7101 70.8464C91.4058 70.5312 92.8949 70.1833 94.395 70.0094C97.1993 69.6833 99.9494 69.9007 102.504 71.2486C104.906 72.5204 105.939 74.2378 105.036 76.814C104.352 78.7706 104.526 80.3576 105.004 82.2924C105.439 84.0642 105.297 86.1403 104.83 87.9339C104.026 90.934 103.004 93.9232 101.634 96.7059C99.0146 101.989 96.1341 107.152 93.2319 112.293C91.3188 115.685 91.0471 119.207 91.8297 122.881C92.9167 128.011 96.1232 130.576 101.384 130.685C104.569 130.75 107.58 129.989 110.526 128.913C112.286 128.272 114.058 127.631 116.776 126.642H116.754ZM68.7099 85.1512C67.1338 80.0097 65.449 75.2813 65.525 70.1725C65.5359 69.379 65.0794 68.5311 64.6881 67.7811C64.0902 66.5963 62.4707 66.4767 61.688 67.542C60.2098 69.542 59.5576 71.8464 59.3728 74.303C58.8619 80.825 61.3402 86.3577 64.9816 92.0862C66.362 89.5318 67.4707 87.4447 68.7099 85.1621V85.1512ZM71.9056 81.2924C73.9273 80.1184 75.2317 79.0967 75.0795 77.0314C74.7969 73.4008 74.9926 69.8029 75.8513 66.2376C76.0034 65.5854 75.536 64.4549 74.9817 64.0636C74.4056 63.6614 73.286 63.6179 72.5795 63.8788C70.8077 64.5201 69.9273 66.0202 69.699 67.8463C69.1447 72.3682 69.7316 76.7162 71.9056 81.2924ZM79.4274 76.5096C81.5579 75.1509 83.2861 74.5096 84.3405 73.2813C86.1666 71.1725 85.7101 66.8137 83.8188 64.5962C82.9927 63.6179 81.4057 63.694 80.7209 64.8354C78.6991 68.2376 78.4056 71.8573 79.4165 76.4988L79.4274 76.5096ZM92.6558 84.7925C90.2101 85.2273 88.6232 85.8034 87.2644 86.8469C84.9275 88.6296 83.7427 90.9992 84.0688 93.9775C84.1883 95.0319 84.6775 96.0972 85.8731 96.1298C86.6123 96.1406 87.6558 95.7819 88.0579 95.2276C90.1993 92.3253 91.5797 89.0535 92.6449 84.8034L92.6558 84.7925Z" fill="#EFB90A"/>
<path d="M225.647 91.902C228.517 91.815 231.223 91.728 234.202 91.6411C233.136 86.1301 229.745 81.706 228.582 76.4993C232.06 75.4015 233.245 75.4123 240.158 76.5754C242.408 83.3474 243.506 90.5324 244.789 97.6739C245.082 99.3261 245.571 101.076 244.604 103.044C242.419 102.891 240.234 102.739 238.136 102.587C236.821 103.957 237.626 105.359 237.799 106.663C238.202 109.718 239.212 112.707 239.006 115.827C238.702 115.881 238.528 115.957 238.365 115.935C238.223 115.914 238.039 115.805 237.962 115.685C233.973 108.37 229.995 101.054 226.049 93.7172C225.821 93.2933 225.821 92.7607 225.636 91.902H225.647Z" fill="#EFB90A"/>
<path d="M94.046 243.537C93.0242 239.493 95.6004 235.939 94.7417 232.101H88.5785C87.9807 227.471 90.7307 213.047 93.1221 208.209C96.2199 207.633 99.4265 207.525 102.883 207.992C102.122 212.992 98.8504 216.916 97.9156 222.036C100.503 222.145 102.85 222.253 105.155 222.351C105.231 222.895 105.427 223.297 105.307 223.536C102.013 229.808 98.6982 236.069 95.3504 242.319C95.133 242.721 94.6656 242.982 94.046 243.547V243.537Z" fill="#EFB90A"/>
<path d="M159.342 196.427C162.875 196.35 165.983 196.35 169.092 196.187C170.451 196.111 171.82 195.829 173.103 195.383C173.56 195.22 174.027 194.285 173.983 193.742C173.94 193.176 173.386 192.372 172.875 192.187C171.929 191.85 170.842 191.785 169.81 191.796C155.744 191.937 141.668 192.111 127.602 192.296C120.657 192.394 113.7 192.557 106.754 192.666C105.896 192.676 105.015 192.589 104.167 192.437C103.211 192.252 102.624 191.546 102.7 190.589C102.82 189.209 103.091 187.85 103.385 186.491C106.2 173.415 109.015 160.349 111.863 147.284C115.602 130.142 119.374 113.022 123.102 95.88C125.32 85.6949 127.461 75.499 129.635 65.3139C129.929 63.9552 130.2 62.5855 130.559 61.2486C131.244 58.7159 131.939 58.1724 134.581 58.0528C135.45 58.0093 136.32 58.0637 137.19 58.0963C145.874 58.3463 154.548 58.5746 163.233 58.8572C173.299 59.1833 183.375 59.5637 193.44 59.9333C194.31 59.9659 195.179 60.0203 196.038 60.1507C198.353 60.5203 198.973 61.4442 198.364 63.7921C197.929 65.4769 197.364 67.1183 196.842 68.7705C189.071 93.456 181.288 118.142 173.516 142.816C172.473 146.132 171.429 149.436 170.44 152.762C170.201 153.567 170.07 154.447 170.114 155.284C170.136 155.697 170.625 156.327 171.005 156.414C171.603 156.556 172.396 156.523 172.896 156.208C173.429 155.871 173.81 155.175 174.092 154.567C174.733 153.143 175.31 151.686 175.842 150.219C176.592 148.121 178.06 147.208 180.244 147.349C180.418 147.36 180.592 147.349 180.766 147.338C197.788 147.045 214.81 146.751 231.832 146.479C232.865 146.458 233.919 146.534 234.93 146.729C236.495 147.034 237.256 148.512 236.495 149.903C235.658 151.414 234.691 152.871 233.615 154.219C226.908 162.643 220.104 171.002 213.408 179.448C192.158 206.275 170.146 232.515 149.733 259.994C147.559 262.918 145.124 265.646 142.657 268.331C141.516 269.57 140.037 270.95 138.135 269.863C136.537 268.961 136.679 267.157 136.853 265.635C137.059 263.744 137.418 261.852 137.94 260.015C143.592 239.939 150.124 220.156 157.407 200.611C157.885 199.329 158.559 198.111 159.353 196.416L159.342 196.427ZM156.712 97.4127C166.429 97.5214 172.875 95.4126 178.157 90.3473C179.375 89.1733 180.353 87.6733 181.136 86.1623C181.407 85.6297 181.016 84.3579 180.494 83.9231C179.973 83.4775 178.744 83.2818 178.157 83.597C177.136 84.1405 176.288 85.0971 175.483 85.9776C173.212 88.4776 170.44 90.2277 167.288 91.3147C158.179 94.4669 146.842 91.9995 140.798 83.347C140.103 82.3579 139.418 81.3252 138.57 80.4774C137.809 79.7274 136.766 79.3795 135.711 79.9991C134.668 80.6187 134.396 81.6296 134.82 82.6948C135.266 83.8144 135.82 84.9123 136.505 85.9015C141.961 93.8474 149.798 97.1627 156.701 97.4018L156.712 97.4127ZM171.701 81.6622C176.744 81.6513 181.364 77.5751 181.668 72.8576C181.734 71.7706 181.473 70.7597 180.331 70.2923C179.179 69.8249 178.266 70.3793 177.636 71.2489C176.831 72.3685 176.31 73.7054 175.451 74.7598C173.386 77.2816 170.473 77.3143 168.288 74.8794C167.375 73.8576 166.679 72.6185 165.712 71.651C165.309 71.2489 164.288 70.9771 163.853 71.2162C163.201 71.5749 162.701 72.3685 162.353 73.0859C162.157 73.488 162.288 74.1185 162.429 74.6076C163.614 78.6839 167.559 81.6622 171.712 81.6513L171.701 81.6622ZM149.059 80.4883C153.429 80.6404 157.809 76.7273 158.168 72.1728C158.222 71.4771 157.625 70.564 157.07 70.0314C156.364 69.3575 154.82 69.6401 154.255 70.4227C153.657 71.2597 153.244 72.2271 152.679 73.0859C150.864 75.8033 147.951 76.0968 145.701 73.7163C144.874 72.8467 144.331 71.7163 143.592 70.7706C142.896 69.8901 141.929 69.5423 140.82 69.9119C139.733 70.2706 139.146 71.651 139.483 72.9337C140.527 76.9555 144.809 80.3252 149.07 80.4774L149.059 80.4883ZM109.2 183.285C109.526 183.817 109.874 184.796 110.559 185.415C111.2 186.002 112.428 185.307 112.95 184.122C113.363 183.187 113.7 182.198 113.939 181.198C115.168 176.176 116.352 171.143 117.526 166.11C117.646 165.621 117.776 165.023 117.602 164.589C117.363 164.002 116.928 163.262 116.396 163.067C115.896 162.882 114.896 163.132 114.613 163.534C113.939 164.491 113.396 165.61 113.113 166.741C112.048 170.915 111.113 175.122 110.124 179.317C109.852 180.491 109.58 181.665 109.2 183.285Z" fill="white"/>
<path d="M71.8418 256.722C68.9396 253.406 69.2004 249.591 67.1461 246.417C66.3308 246.689 65.4178 246.982 64.5156 247.308C63.5699 247.645 62.646 248.015 61.5264 248.439C60.9721 247.537 60.3525 246.884 60.1134 246.113C58.3742 240.308 56.722 234.471 55.0155 228.656C54.4285 226.656 55.1024 225.275 56.8851 224.362C59.0047 223.264 60.8851 221.601 63.6243 221.438C66.0156 225.373 64.4939 229.971 65.7004 234.156C68.2113 234.906 69.7439 232.123 72.3309 232.525C73.8744 234.862 72.6244 237.482 72.7114 239.96C72.8092 242.732 72.7874 245.515 72.6787 248.287C72.5809 250.841 73.1027 253.461 71.8527 256.754L71.8418 256.722Z" fill="white"/>
<path d="M106.353 59.4007C106.353 58.6833 106.701 57.4876 107.092 56.3571C109.94 48.0416 114.56 40.7697 120.245 34.1282C120.908 33.3564 121.745 32.6608 122.636 32.1933C123.136 31.9325 124.038 32.0303 124.549 32.3347C125.332 32.7912 125.647 33.6825 125.288 34.5956C125.038 35.2369 124.69 35.8456 124.299 36.4C123.69 37.2478 122.995 38.0196 122.353 38.8348C117.581 44.8568 113.723 51.3896 111.266 58.705C110.994 59.5203 110.723 60.3572 110.342 61.1181C109.831 62.1399 108.962 62.6725 107.799 62.3464C106.56 61.9986 106.342 60.9551 106.364 59.3898L106.353 59.4007Z" fill="white"/>
<path d="M100.918 58.3788C100.863 58.6722 100.896 59.281 100.613 59.6505C100.222 60.1614 99.6243 60.7267 99.0482 60.8027C98.4829 60.8788 97.6351 60.531 97.2764 60.0853C96.7547 59.444 96.3742 58.5744 96.2438 57.7592C95.559 53.2699 94.1785 48.9763 92.635 44.7262C92.3524 43.9327 92.1459 43.0087 92.2763 42.2044C92.3633 41.6391 92.9937 40.9326 93.5372 40.7261C94.059 40.5304 94.8525 40.7804 95.4286 41.0522C95.8525 41.2478 96.1786 41.7587 96.4394 42.1935C98.3851 45.4001 100.939 54.5526 100.918 58.3788Z" fill="white"/>
</g>
<defs>
<clipPath id="clip0_128_2165">
<rect width="190.383" height="238.203" fill="white" transform="translate(54.8086 32.0525)"/>
</clipPath>
</defs>
</svg>