<svg width="26" height="26" viewBox="0 0 26 26" fill="none" xmlns="http://www.w3.org/2000/svg">
<path d="M25 1H17M25 1L13 13M25 1V9" stroke="#418CD2" stroke-width="2" stroke-linecap="round" stroke-linejoin="round"/>
<path d="M25 14.3333V22.3333C25 23.0406 24.719 23.7189 24.219 24.219C23.7189 24.719 23.0406 25 22.3333 25H3.66667C2.95942 25 2.28115 24.719 1.78105 24.219C1.28095 23.7189 1 23.0406 1 22.3333V3.66667C1 2.95942 1.28095 2.28115 1.78105 1.78105C2.28115 1.28095 2.95942 1 3.66667 1H11.6667" stroke="#418CD2" stroke-width="2" stroke-linecap="round"/>
<rect x="13.6841" y="10.9331" width="1.97246" height="8" transform="rotate(45.94 13.6841 10.9331)" fill="#418CD2"/>
</svg>
